<?xml version="1.0" encoding="UTF-8" standalone="no"?>
<svg xmlns="http://www.w3.org/2000/svg" xmlns:xlink="http://www.w3.org/1999/xlink" contentScriptType="application/ecmascript" contentStyleType="text/css" height="516px" preserveAspectRatio="none" style="width:652px;height:516px;background:#FFFFFF;" version="1.1" viewBox="0 0 652 516" width="652px" zoomAndPan="magnify"><defs><filter height="300%" id="fbw0rh32p691q" width="300%" x="-1" y="-1"><feGaussianBlur result="blurOut" stdDeviation="2.0"/><feColorMatrix in="blurOut" result="blurOut2" type="matrix" values="0 0 0 0 0 0 0 0 0 0 0 0 0 0 0 0 0 0 .4 0"/><feOffset dx="4.0" dy="4.0" in="blurOut2" result="blurOut3"/><feBlend in="SourceGraphic" in2="blurOut3" mode="normal"/></filter></defs><g><ellipse cx="78.7524" cy="16" fill="#000000" filter="url(#fbw0rh32p691q)" rx="10" ry="10" style="stroke:none;stroke-width:1.0;"/><g id="ConnectionState"><rect fill="#FEFECE" filter="url(#fbw0rh32p691q)" height="50.2656" rx="12.5" ry="12.5" style="stroke:#A80036;stroke-width:1.5;" width="136" x="10.7524" y="103"/><line style="stroke:#A80036;stroke-width:1.5;" x1="10.7524" x2="146.7524" y1="129.2969" y2="129.2969"/><text fill="#000000" font-family="sans-serif" font-size="14" lengthAdjust="spacing" textLength="116" x="20.7524" y="120.9951">ConnectionState</text><text fill="#000000" font-family="sans-serif" font-size="12" lengthAdjust="spacing" textLength="92" x="15.7524" y="145.4355">Authentication</text></g><ellipse cx="207.7524" cy="494" fill="none" filter="url(#fbw0rh32p691q)" rx="10" ry="10" style="stroke:#000000;stroke-width:1.0;"/><ellipse cx="208.2524" cy="494.5" fill="#000000" rx="6" ry="6" style="stroke:none;stroke-width:1.0;"/><g id="CommandState"><rect fill="#FEFECE" filter="url(#fbw0rh32p691q)" height="50.2656" rx="12.5" ry="12.5" style="stroke:#A80036;stroke-width:1.5;" width="234" x="90.7524" y="230"/><line style="stroke:#A80036;stroke-width:1.5;" x1="90.7524" x2="324.7524" y1="256.2969" y2="256.2969"/><text fill="#000000" font-family="sans-serif" font-size="14" lengthAdjust="spacing" textLength="107" x="154.2524" y="247.9951">CommandState</text><text fill="#000000" font-family="sans-serif" font-size="12" lengthAdjust="spacing" textLength="214" x="95.7524" y="272.4355">RPC commands read/execute loop</text></g><g id="ReplicationMode"><rect fill="#FEFECE" filter="url(#fbw0rh32p691q)" height="50.2656" rx="12.5" ry="12.5" style="stroke:#A80036;stroke-width:1.5;" width="155" x="483.2524" y="357"/><line style="stroke:#A80036;stroke-width:1.5;" x1="483.2524" x2="638.2524" y1="383.2969" y2="383.2969"/><text fill="#000000" font-family="sans-serif" font-size="14" lengthAdjust="spacing" textLength="115" x="503.2524" y="374.9951">ReplicationMode</text><text fill="#000000" font-family="sans-serif" font-size="12" lengthAdjust="spacing" textLength="135" x="488.2524" y="399.4355">binlog data streamed</text></g><!--MD5=[ff06d3628e26abd8ab46d4ea7dfea455]
link *start to ConnectionState--><path d="M78.7524,26.002 C78.7524,41.458 78.7524,73.685 78.7524,97.6 " fill="none" id="*start-to-ConnectionState" style="stroke:#A80036;stroke-width:1.0;"/><polygon fill="#A80036" points="78.7524,102.873,82.7524,93.873,78.7524,97.873,74.7524,93.873,78.7524,102.873" style="stroke:#A80036;stroke-width:1.0;"/><text fill="#000000" font-family="sans-serif" font-size="13" lengthAdjust="spacing" textLength="96" x="79.7524" y="69.0669">client connects</text><!--MD5=[e1c7939af06222d2ee9a263540c6bdad]
link ConnectionState to *end--><path d="M63.5792,153.012 C41.5469,191.138 6,267.311 31.7524,327 C66.1666,406.7655 159.8544,465.997 194.5764,485.8082 " fill="none" id="ConnectionState-to-*end" style="stroke:#A80036;stroke-width:1.0;"/><polygon fill="#A80036" points="199.2564,488.4428,193.376,480.5421,194.8994,485.99,189.4515,487.5134,199.2564,488.4428" style="stroke:#A80036;stroke-width:1.0;"/><text fill="#000000" font-family="sans-serif" font-size="13" lengthAdjust="spacing" textLength="166" x="32.7524" y="323.0669">Error or client disconnects</text><!--MD5=[d897a44dbbc7bd8c84e475c832699ae5]
link ConnectionState to CommandState--><path d="M103.6249,153.101 C125.2184,174.025 156.4874,204.324 179.1184,226.254 " fill="none" id="ConnectionState-to-CommandState" style="stroke:#A80036;stroke-width:1.0;"/><polygon fill="#A80036" points="182.9564,229.973,179.2783,220.8367,179.3663,226.4929,173.7101,226.5809,182.9564,229.973" style="stroke:#A80036;stroke-width:1.0;"/><text fill="#000000" font-family="sans-serif" font-size="13" lengthAdjust="spacing" textLength="164" x="152.7524" y="196.0669">Successful authentication</text><!--MD5=[02f381357a2c2b65f9acbf6fda567bcb]
link CommandState to *end--><path d="M207.7524,280.029 C207.7524,328.933 207.7524,438.75 207.7524,478.3842 " fill="none" id="CommandState-to-*end" style="stroke:#A80036;stroke-width:1.0;"/><polygon fill="#A80036" points="207.7524,483.707,211.7524,474.707,207.7524,478.707,203.7524,474.707,207.7524,483.707" style="stroke:#A80036;stroke-width:1.0;"/><text fill="#000000" font-family="sans-serif" font-size="13" lengthAdjust="spacing" textLength="238" x="208.7524" y="386.5669">client or server closes the connection</text><!--MD5=[bc67da54f4c35218bfc076be6976e19a]
link CommandState to ReplicationMode--><path d="M275.8144,280.101 C336.7354,301.674 425.7974,333.211 488.0864,355.268 " fill="none" id="CommandState-to-ReplicationMode" style="stroke:#A80036;stroke-width:1.0;"/><polygon fill="#A80036" points="492.8994,356.973,485.7504,350.1986,488.1861,355.3043,483.0805,357.7399,492.8994,356.973" style="stroke:#A80036;stroke-width:1.0;"/><text fill="#000000" font-family="sans-serif" font-size="13" lengthAdjust="spacing" textLength="196" x="405.7524" y="323.0669">Replication command received</text><!--MD5=[5130c7f17d8df75e6801d5b476407f5c]
link ReplicationMode to *end--><path d="M483.7214,407.004 C397.9474,433.7323 265.6404,474.9612 222.1484,488.5139 " fill="none" id="ReplicationMode-to-*end" style="stroke:#A80036;stroke-width:1.0;"/><polygon fill="#A80036" points="217.2944,490.0266,227.0768,491.1686,222.0681,488.5394,224.6973,483.5307,217.2944,490.0266" style="stroke:#A80036;stroke-width:1.0;"/><text fill="#000000" font-family="sans-serif" font-size="13" lengthAdjust="spacing" textLength="238" x="384.7524" y="450.0669">client or server closes the connection</text><!--MD5=[5115fa4eb882dd96336b9f0951231938]
@startuml inline_umlgraph_58.svg
[*] - -> ConnectionState : client connects
ConnectionState: Authentication
ConnectionState - -> [*] : Error or client disconnects
ConnectionState - -> CommandState : Successful authentication
CommandState: RPC commands read/execute loop
CommandState - -> [*] : client or server closes the connection
CommandState - -> ReplicationMode : Replication command received
ReplicationMode: binlog data streamed
ReplicationMode - -> [*] : client or server closes the connection
@enduml

PlantUML version 1.2022.1(Tue Feb 01 18:19:58 UTC 2022)
(GPL source distribution)
Java Runtime: Java(TM) SE Runtime Environment
JVM: Java HotSpot(TM) 64-Bit Server VM
Default Encoding: ANSI_X3.4-1968
Language: en
Country: US
--></g></svg>